<svg xmlns="http://www.w3.org/2000/svg" viewBox="0 0 512 512" width="512" height="512"><title>Quadrion AI app icon</title><rect width="512" height="512" rx="112" fill="#11161C"/><g transform="translate(256 256) scale(6.4) translate(-32 -35)"><defs><mask id="i0" maskUnits="userSpaceOnUse" x="-16" y="-16" width="96" height="96"><rect x="-16" y="-16" width="96" height="96" fill="#fff"/><path d="M30 32 L51 40 L30 48 L9 40Z" fill="#000" stroke="#000" stroke-width="5" stroke-linejoin="miter"/><path d="M34 22 L55 30 L34 38 L13 30Z" fill="#000" stroke="#000" stroke-width="5" stroke-linejoin="miter"/><path d="M38 12 L59 20 L38 28 L17 20Z" fill="#000" stroke="#000" stroke-width="5" stroke-linejoin="miter"/></mask><mask id="i1" maskUnits="userSpaceOnUse" x="-16" y="-16" width="96" height="96"><rect x="-16" y="-16" width="96" height="96" fill="#fff"/><path d="M34 22 L55 30 L34 38 L13 30Z" fill="#000" stroke="#000" stroke-width="5" stroke-linejoin="miter"/><path d="M38 12 L59 20 L38 28 L17 20Z" fill="#000" stroke="#000" stroke-width="5" stroke-linejoin="miter"/></mask><mask id="i2" maskUnits="userSpaceOnUse" x="-16" y="-16" width="96" height="96"><rect x="-16" y="-16" width="96" height="96" fill="#fff"/><path d="M38 12 L59 20 L38 28 L17 20Z" fill="#000" stroke="#000" stroke-width="5" stroke-linejoin="miter"/></mask></defs><path d="M26 42 L47 50 L26 58 L5 50Z" fill="#EEF2F5" mask="url(#i0)"/><path d="M30 32 L51 40 L30 48 L9 40Z" fill="#EEF2F5" mask="url(#i1)"/><path d="M34 22 L55 30 L34 38 L13 30Z" fill="#EEF2F5" mask="url(#i2)"/><path d="M38 12 L59 20 L38 28 L17 20Z" fill="#5ED1B3"/></g></svg>
