<svg xmlns="http://www.w3.org/2000/svg" viewBox="0 0 64 64" width="512" height="512" aria-hidden="true"><defs><mask id="q19"><rect width="64" height="64" fill="#fff"/><path d="M30 32 L51 40 L30 48 L9 40Z" fill="#000" stroke="#000" stroke-width="5" stroke-linejoin="round"/><path d="M34 22 L55 30 L34 38 L13 30Z" fill="#000" stroke="#000" stroke-width="5" stroke-linejoin="round"/><path d="M38 12 L59 20 L38 28 L17 20Z" fill="#000" stroke="#000" stroke-width="5" stroke-linejoin="round"/></mask><mask id="q20"><rect width="64" height="64" fill="#fff"/><path d="M34 22 L55 30 L34 38 L13 30Z" fill="#000" stroke="#000" stroke-width="5" stroke-linejoin="round"/><path d="M38 12 L59 20 L38 28 L17 20Z" fill="#000" stroke="#000" stroke-width="5" stroke-linejoin="round"/></mask><mask id="q21"><rect width="64" height="64" fill="#fff"/><path d="M38 12 L59 20 L38 28 L17 20Z" fill="#000" stroke="#000" stroke-width="5" stroke-linejoin="round"/></mask></defs><path d="M26 42 L47 50 L26 58 L5 50Z" fill="#000" mask="url(#q19)"/><path d="M30 32 L51 40 L30 48 L9 40Z" fill="#000" mask="url(#q20)"/><path d="M34 22 L55 30 L34 38 L13 30Z" fill="#000" mask="url(#q21)"/><path d="M38 12 L59 20 L38 28 L17 20Z" fill="#000"/></svg>