<svg xmlns="http://www.w3.org/2000/svg" viewBox="0 0 64 64" width="512" height="512" aria-hidden="true"><defs><mask id="q37"><rect width="64" height="64" fill="#fff"/><rect x="28.5" y="0" width="7" height="64" fill="#000"/></mask></defs><g mask="url(#q37)"><defs><mask id="q38"><rect width="64" height="64" fill="#fff"/><path d="M32 31.5 L55 40 L32 48.5 L9 40Z" fill="#000" stroke="#000" stroke-width="5" stroke-linejoin="round"/><path d="M32 21.5 L55 30 L32 38.5 L9 30Z" fill="#000" stroke="#000" stroke-width="5" stroke-linejoin="round"/><path d="M32 11.5 L55 20 L32 28.5 L9 20Z" fill="#000" stroke="#000" stroke-width="5" stroke-linejoin="round"/></mask><mask id="q39"><rect width="64" height="64" fill="#fff"/><path d="M32 21.5 L55 30 L32 38.5 L9 30Z" fill="#000" stroke="#000" stroke-width="5" stroke-linejoin="round"/><path d="M32 11.5 L55 20 L32 28.5 L9 20Z" fill="#000" stroke="#000" stroke-width="5" stroke-linejoin="round"/></mask><mask id="q40"><rect width="64" height="64" fill="#fff"/><path d="M32 11.5 L55 20 L32 28.5 L9 20Z" fill="#000" stroke="#000" stroke-width="5" stroke-linejoin="round"/></mask></defs><path d="M32 41.5 L55 50 L32 58.5 L9 50Z" fill="#EEF2F5" mask="url(#q38)"/><path d="M32 31.5 L55 40 L32 48.5 L9 40Z" fill="#EEF2F5" mask="url(#q39)"/><path d="M32 21.5 L55 30 L32 38.5 L9 30Z" fill="#EEF2F5" mask="url(#q40)"/><path d="M32 11.5 L55 20 L32 28.5 L9 20Z" fill="#5ED1B3"/></g><line x1="32" y1="9" x2="32" y2="61" stroke="#5ED1B3" stroke-width="3"/><circle cx="32" cy="7" r="4" fill="#5ED1B3"/></svg>