<svg xmlns="http://www.w3.org/2000/svg" viewBox="0 0 340 100" width="340" height="100"><title>Stratlas R1 · Three plates lockup</title><!-- Wordmark is live text in IBM Plex Sans / IBM Plex Sans Arabic. Outline before production. --><g transform="translate(14 18)"><defs><mask id="r1-f-m2" maskUnits="userSpaceOnUse" x="-16" y="-16" width="96" height="96"><rect x="-16" y="-16" width="96" height="96" fill="white"/><polygon points="8,20 32,8 56,20 32,32" fill="black" stroke="black" stroke-width="6" stroke-linejoin="miter"/><polygon points="8,32 32,20 56,32 32,44" fill="black" stroke="black" stroke-width="6" stroke-linejoin="miter"/></mask><mask id="r1-f-m1" maskUnits="userSpaceOnUse" x="-16" y="-16" width="96" height="96"><rect x="-16" y="-16" width="96" height="96" fill="white"/><polygon points="8,20 32,8 56,20 32,32" fill="black" stroke="black" stroke-width="6" stroke-linejoin="miter"/></mask></defs><polygon points="8,44 32,32 56,44 32,56" style="fill:#15181D" mask="url(#r1-f-m2)"/><polygon points="8,32 32,20 56,32 32,44" style="fill:#15181D" mask="url(#r1-f-m1)"/><polygon points="8,20 32,8 56,20 32,32" style="fill:#16866A"/></g><text x="94" y="55" font-family="'IBM Plex Sans', 'Segoe UI', Helvetica, Arial, sans-serif" font-size="31" font-weight="600" letter-spacing="0.12em" style="fill:#15181D">STRATLAS</text><text x="94" y="84" font-family="'IBM Plex Sans Arabic', 'Segoe UI', Tahoma, Arial, sans-serif" font-size="17" font-weight="500" style="fill:#15181D" fill-opacity=".72">ستراتلاس</text></svg>
