<svg xmlns="http://www.w3.org/2000/svg" viewBox="0 0 512 512" width="512" height="512"><title>Stratlas R6 · Five offset strata app icon</title><rect width="512" height="512" rx="112" fill="#18202B"/><g transform="translate(256 256) scale(6.2) translate(-32 -30)"><defs><mask id="r6-i-m4" maskUnits="userSpaceOnUse" x="-16" y="-16" width="96" height="96"><rect x="-16" y="-16" width="96" height="96" fill="white"/><polygon points="6,14 26,4 46,14 26,24" fill="black" stroke="black" stroke-width="4" stroke-linejoin="miter"/><polygon points="9,22 29,12 49,22 29,32" fill="black" stroke="black" stroke-width="4" stroke-linejoin="miter"/><polygon points="12,30 32,20 52,30 32,40" fill="black" stroke="black" stroke-width="4" stroke-linejoin="miter"/><polygon points="15,38 35,28 55,38 35,48" fill="black" stroke="black" stroke-width="4" stroke-linejoin="miter"/></mask><mask id="r6-i-m3" maskUnits="userSpaceOnUse" x="-16" y="-16" width="96" height="96"><rect x="-16" y="-16" width="96" height="96" fill="white"/><polygon points="6,14 26,4 46,14 26,24" fill="black" stroke="black" stroke-width="4" stroke-linejoin="miter"/><polygon points="9,22 29,12 49,22 29,32" fill="black" stroke="black" stroke-width="4" stroke-linejoin="miter"/><polygon points="12,30 32,20 52,30 32,40" fill="black" stroke="black" stroke-width="4" stroke-linejoin="miter"/></mask><mask id="r6-i-m2" maskUnits="userSpaceOnUse" x="-16" y="-16" width="96" height="96"><rect x="-16" y="-16" width="96" height="96" fill="white"/><polygon points="6,14 26,4 46,14 26,24" fill="black" stroke="black" stroke-width="4" stroke-linejoin="miter"/><polygon points="9,22 29,12 49,22 29,32" fill="black" stroke="black" stroke-width="4" stroke-linejoin="miter"/></mask><mask id="r6-i-m1" maskUnits="userSpaceOnUse" x="-16" y="-16" width="96" height="96"><rect x="-16" y="-16" width="96" height="96" fill="white"/><polygon points="6,14 26,4 46,14 26,24" fill="black" stroke="black" stroke-width="4" stroke-linejoin="miter"/></mask></defs><polygon points="18,46 38,36 58,46 38,56" style="fill:#E3EAF2" mask="url(#r6-i-m4)"/><polygon points="15,38 35,28 55,38 35,48" style="fill:#E3EAF2" mask="url(#r6-i-m3)"/><polygon points="12,30 32,20 52,30 32,40" style="fill:#E3EAF2" mask="url(#r6-i-m2)"/><polygon points="9,22 29,12 49,22 29,32" style="fill:#E3EAF2" mask="url(#r6-i-m1)"/><polygon points="6,14 26,4 46,14 26,24" style="fill:#45C79F"/></g></svg>
